<?xml version="1.0" standalone="no"?>
<!DOCTYPE svg PUBLIC "-//W3C//DTD SVG 1.1//EN" "http://www.w3.org/Graphics/SVG/1.1/DTD/svg11.dtd" >
<svg xmlns="http://www.w3.org/2000/svg">
<metadata>Generated by IcoMoon</metadata>
<defs>
<font id="icomoon" horiz-adv-x="512">
<font-face units-per-em="512" ascent="480" descent="-32" />
<missing-glyph horiz-adv-x="512" />
<glyph unicode="&#x20;" horiz-adv-x="256" d="" />
<glyph unicode="&#xe002;" glyph-name="home" d="M512.138 176.039l-96 96v144.024h-63.96v-79.976l-96 96-255.988-255.988v-15.908h63.96v-160.030h159.97v96h63.96v-96h159.97v160.029h63.96z" />
<glyph unicode="&#xe086;" glyph-name="txt" d="M458.903 365.462c-11.106 15.146-26.587 32.85-43.589 49.852s-34.706 32.482-49.852 43.589c-25.787 18.91-38.296 21.097-45.462 21.097h-248c-22.056 0-40-17.944-40-40v-432c0-22.056 17.944-40 40-40h368c22.056 0 40 17.944 40 40v312c0 7.166-2.186 19.675-21.097 45.462zM392.687 392.687c15.35-15.35 27.4-29.199 36.29-40.687h-76.977v76.973c11.492-8.89 25.339-20.939 40.687-36.286zM448 8c0-4.336-3.664-8-8-8h-368c-4.336 0-8 3.664-8 8v432c0 4.336 3.664 8 8 8 0 0 247.978 0.001 248 0v-112c0-8.836 7.163-16 16-16h112v-312zM368 64h-224c-8.836 0-16 7.163-16 16s7.164 16 16 16h224c8.837 0 16-7.163 16-16s-7.163-16-16-16zM368 128h-224c-8.836 0-16 7.163-16 16s7.164 16 16 16h224c8.837 0 16-7.163 16-16s-7.163-16-16-16zM368 192h-224c-8.836 0-16 7.163-16 16s7.164 16 16 16h224c8.837 0 16-7.163 16-16s-7.163-16-16-16z" />
<glyph unicode="&#xe091;" glyph-name="copy" d="M320 352v128h-224l-96-96v-288h192v-128h320v384h-192zM96 434.745v-50.745h-50.745l50.745 50.745zM32 128v224h96v96h160v-96l-96-96v-128h-160zM288 306.745v-50.745h-50.745l50.745 50.745zM480 0h-256v224h96v96h160v-320z" />
<glyph unicode="&#xe0a2;" glyph-name="browse" d="M416 0l96 256h-416l-96-256zM64 288l-64-288v416h144l64-64h208v-64z" />
<glyph unicode="&#xe199;" glyph-name="user" d="M160 384c0 53.019 42.981 96 96 96s96-42.981 96-96c0-53.019-42.981-96-96-96s-96 42.981-96 96zM384.039 256h-17.712l-99.552-202.122 37.225 186.122-48 48-48-48 37.225-186.122-99.551 202.122h-17.712c-63.962 0-63.962-42.993-63.962-96v-160h384v160c0 53.007 0 96-63.961 96z" />
<glyph unicode="&#xe2ff;" glyph-name="star-empty" d="M512 281.475l-176.89 25.704-79.11 160.291-79.108-160.291-176.893-25.704 128-124.769-30.216-176.176 158.216 83.179 158.216-83.179-30.217 176.176 128.001 124.769zM256 103.251l-111.731-58.74 21.338 124.415-90.393 88.111 124.92 18.152 55.866 113.198 55.868-113.198 124.918-18.152-90.394-88.111 21.339-124.415-111.731 58.74z" />
<glyph unicode="&#xe301;" glyph-name="star" d="M512 281.475l-176.89 25.704-79.11 160.291-79.108-160.291-176.893-25.704 128-124.769-30.216-176.176 158.216 83.179 158.216-83.179-30.217 176.176 128.001 124.769z" />
<glyph unicode="&#xe443;" glyph-name="filter" d="M256 480c-141.385 0-256-35.817-256-80v-48l192-192v-160c0-17.673 28.653-32 64-32s64 14.327 64 32v160l192 192v48c0 44.183-114.615 80-256 80zM47.192 410.588c11.972 6.829 28.791 13.31 48.639 18.744 43.972 12.038 100.854 18.668 160.169 18.668s116.197-6.63 160.169-18.668c19.848-5.434 36.667-11.915 48.64-18.744 7.896-4.503 12.162-8.312 14.148-10.588-1.986-2.276-6.253-6.084-14.148-10.588-11.973-6.829-28.792-13.31-48.64-18.744-43.971-12.038-100.854-18.668-160.169-18.668s-116.197 6.63-160.169 18.668c-19.848 5.434-36.667 11.915-48.639 18.744-7.896 4.504-12.162 8.312-14.149 10.588 1.987 2.276 6.253 6.084 14.149 10.588z" />
<glyph unicode="&#xe48c;" glyph-name="share" d="M432 128c-22.58 0-42.96-9.369-57.506-24.415l-215.502 107.751c0.657 4.126 1.008 8.353 1.008 12.664s-0.351 8.538-1.008 12.663l215.502 107.751c14.546-15.045 34.926-24.414 57.506-24.414 44.183 0 80 35.817 80 80s-35.817 80-80 80-80-35.817-80-80c0-4.311 0.352-8.538 1.008-12.663l-215.502-107.752c-14.546 15.045-34.926 24.415-57.506 24.415-44.183 0-80-35.818-80-80 0-44.184 35.817-80 80-80 22.58 0 42.96 9.369 57.506 24.414l215.502-107.751c-0.656-4.125-1.008-8.352-1.008-12.663 0-44.184 35.817-80 80-80s80 35.816 80 80c0 44.182-35.817 80-80 80z" />
<glyph unicode="&#xe600;" glyph-name="pencil" d="M482.768 359.328l-5.024-5.024-91.616 91.664 5.008 5.008c0 0 21.936 29.008 53.136 29.008 13.744 0 29.312-5.648 45.584-21.92 53.664-53.664-7.088-98.736-7.088-98.736zM447.664 324.208l-311.984-312.096-135.68-44.112 44.096 135.76v0.048h0.032l311.936 312.080 4.032-4.048zM44.16 12.176l67.792 19.504-46.304 49.312-21.488-68.816z" />
<glyph unicode="&#xe601;" glyph-name="warn" d="M505.216 60.624l-191.984 384c-10.832 21.68-32.976 35.376-57.232 35.376s-46.4-13.696-57.232-35.376l-191.984-384c-9.92-19.84-8.864-43.408 2.8-62.288 11.664-18.848 32.256-30.336 54.432-30.336h383.952c22.192 0 42.784 11.488 54.432 30.336 11.664 18.88 12.72 42.448 2.816 62.288zM287.968 48c0-8.848-7.152-16-16-16h-32c-8.848 0-16 7.152-16 16v32c0 8.848 7.152 16 16 16h32c8.848 0 16-7.152 16-16v-32zM287.968 176c0-8.848-7.152-16-16-16h-32c-8.848 0-16 7.152-16 16v160c0 8.832 7.152 16 16 16h32c8.848 0 16-7.168 16-16v-160z" />
<glyph unicode="&#xe603;" glyph-name="calendar" d="M192.768 208.624c-2.848-4.112-6.32-14.416-10.432-16.944-4.112-2.512-8.752-4.272-13.904-5.248-5.168-0.992-10.512-1.424-16.032-1.264v-24.432h39.472v-96.736h31.856v159.936h-25.344c-0.896-6.096-2.768-11.2-5.616-15.312zM368 352h32c8.848 0 16 7.168 16 16v96c0 8.832-7.152 16-16 16h-32c-8.848 0-16-7.168-16-16v-96c0-8.832 7.152-16 16-16zM112 352h32c8.832 0 16 7.168 16 16v96c0 8.832-7.168 16-16 16h-32c-8.832 0-16-7.168-16-16v-96c0-8.832 7.168-16 16-16zM480 416h-32v-80c0-8.832-7.152-16-16-16h-96c-8.848 0-16 7.168-16 16v80h-128v-80c0-8.832-7.168-16-16-16h-96c-8.832 0-16 7.168-16 16v80h-32c-17.664 0-32-14.336-32-32v-384c0-17.664 14.336-32 32-32h448c17.664 0 32 14.336 32 32v384c0 17.664-14.336 32-32 32zM480 16c0-8.848-7.152-16-16-16h-416c-8.832 0-16 7.152-16 16v256c0 8.832 7.168 16 16 16h416c8.848 0 16-7.168 16-16v-256zM255.76 192.288h79.488c-14.976-18.432-27.024-37.2-36.24-59.28-9.2-22.096-10.208-45.088-11.984-68.992h34.096c0.144 10.656-3.12 22.16-0.816 34.496 2.336 12.336 5.632 24.512 9.872 36.56 4.272 12.032 9.568 23.376 15.936 34.032 6.336 10.672 13.648 19.664 21.872 26.976v27.872h-112.24v-31.664z" />
<glyph unicode="&#xe604;" glyph-name="down" horiz-adv-x="385" d="M192.188 160.62l-136.133 136.134-40.039-40.040 176.172-176.17 176.172 176.17-40.039 40.040z" />
<glyph unicode="&#xe605;" glyph-name="up" horiz-adv-x="385" d="M192.188 278.237l-136.133-136.134-40.039 40.040 176.172 176.17 176.172-176.17-40.039-40.040z" />
<glyph unicode="&#xe606;" glyph-name="read" d="M212.181 269.589c-36.118 27.925-80.107 57.514-149.333 63.125l149.333-63.125zM212.181 205.589c-36.118 27.926-80.107 57.515-149.333 63.126l149.333-63.126zM148.16 182.379c-23.787 11.158-51.541 19.606-85.312 22.336l85.312-22.336zM278.486 269.589l149.333 63.125c-69.226-5.611-113.216-35.221-149.333-63.125zM278.486 205.589l149.333 63.126c-69.226-5.611-113.216-35.222-149.333-63.126zM427.818 204.715c-33.77-2.731-61.526-11.158-85.312-22.336l85.312 22.336zM470.486 461.589c-93.44 0-178.966-43.627-222.186-78.166h-5.91c-43.243 34.538-128.768 78.166-222.208 78.166h-20.181v-405.334h20.181c69.034 0 145.558-26.582 179.584-52.245 10.112-7.659 19.35-15.659 27.477-23.808l17.088-15.68h2.006l17.088 15.68c8.128 8.149 17.365 16.149 27.478 23.808 34.026 25.664 110.549 52.245 179.584 52.245h20.181v405.334h-20.182zM234.667 31.552c0 2.176-5.206 4.373-8.022 6.507-35.691 26.901-119.978 55.382-183.978 60.16v319.829c85.333-6.528 154.944-47.978 185.195-78.122l5.781-6.336h1.024v-302.038zM448 98.219c-64-4.779-148.288-33.259-183.978-60.16-2.816-2.134-8.022-4.352-8.022-6.507v302.038h1.046l5.781 6.336c30.23 30.144 99.84 71.595 185.173 78.123v-319.829z" />
<glyph unicode="&#xe607;" glyph-name="search" d="M496.616 47.773l-121.394 103.248c-12.55 11.294-25.971 16.479-36.812 15.978 28.656 33.567 45.966 77.115 45.966 124.71 0 106.143-86.045 192.188-192.188 192.188s-192.188-86.045-192.188-192.188 86.045-192.188 192.188-192.188c47.596 0 91.143 17.31 124.71 45.967-0.5-10.841 4.685-24.262 15.978-36.812l103.248-121.394c17.678-19.642 46.556-21.298 64.173-3.682s15.961 46.495-3.68 64.173zM192.188 163.585c-70.761 0-128.125 57.364-128.125 128.125s57.364 128.125 128.125 128.125 128.125-57.364 128.125-128.125-57.363-128.125-128.125-128.125z" />
<glyph unicode="&#xe608;" glyph-name="location" horiz-adv-x="320" d="M273.12 433.12c-62.496 62.496-163.744 62.496-226.256 0-62.496-62.464-62.496-163.808 0-226.24 0.016 0 113.136-110.88 113.136-238.88 0 128 113.12 238.88 113.12 238.88 62.512 62.432 62.512 163.776 0 226.24zM160 256c-35.376 0-64 28.624-64 64s28.624 64 64 64 64-28.624 64-64-28.624-64-64-64z" />
<glyph unicode="&#xe609;" glyph-name="export" d="M405.334 64h-298.666v298.667h149.333v42.666h-149.333c-23.573 0-42.666-19.093-42.666-42.666v-298.667c0-23.574 19.093-42.666 42.666-42.666h298.666c23.574 0 42.666 19.094 42.666 42.666v149.334h-42.666v-149.333zM298.666 405.333v-42.667h76.48l-209.707-209.707 30.186-30.187 209.706 209.707v-76.48h42.666v149.334h-149.334z" />
<glyph unicode="&#xe60a;" glyph-name="gear" d="M414.507 192.533c0.853 6.827 1.493 13.76 1.493 20.8s-0.64 13.974-1.493 20.8l45.12 35.306c4.053 3.2 5.226 8.96 2.56 13.654l-42.666 73.92c-2.666 4.587-8.214 6.507-13.014 4.587l-53.12-21.44c-10.986 8.426-23.040 15.573-36.053 21.013l-8 56.534c-0.96 5.013-5.334 8.96-10.666 8.96h-85.334c-5.333 0-9.707-3.947-10.56-8.96l-8-56.534c-13.013-5.44-25.066-12.48-36.053-21.013l-53.12 21.44c-4.8 1.814-10.347 0-13.013-4.587l-42.666-73.92c-2.666-4.587-1.493-10.346 2.56-13.654l45.014-35.307c-0.853-6.827-1.493-13.76-1.493-20.8s0.64-13.974 1.493-20.8l-45.014-35.306c-4.053-3.2-5.227-8.96-2.56-13.654l42.666-73.92c2.666-4.587 8.213-6.507 13.013-4.587l53.12 21.44c10.987-8.426 23.040-15.574 36.053-21.014l8-56.534c0.853-5.014 5.226-8.96 10.56-8.96h85.334c5.334 0 9.707 3.947 10.56 8.96l8 56.534c13.014 5.44 25.067 12.48 36.053 21.014l53.12-21.44c4.8-1.813 10.346 0 13.014 4.587l42.666 73.92c2.666 4.587 1.493 10.346-2.56 13.654l-45.014 35.307zM256 138.667c-41.28 0-74.666 33.387-74.666 74.666s33.387 74.666 74.666 74.666 74.666-33.386 74.666-74.666-33.387-74.666-74.666-74.666z" />
<glyph unicode="&#xe60b;" glyph-name="history" d="M279.113 422.392c-115.563 0-208.942-93.612-208.942-209.059h-69.686l90.477-90.476 1.627-3.368 93.728 93.844h-69.686c0 89.78 72.823 162.602 162.602 162.602s162.601-72.822 162.601-162.602-72.822-162.601-162.601-162.601c-44.948 0-85.481 18.351-114.866 47.735l-32.868-32.868c37.746-37.863 89.895-61.324 147.619-61.324 115.563 0 209.174 93.612 209.174 209.059s-93.612 209.059-209.174 209.059zM256 306.248v-116.144l99.419-59.001 16.725 28.223-81.3 48.2v98.722h-34.844z" />
<glyph unicode="&#xe60c;" glyph-name="multiply" d="M486.42 385.516l-57.456 57.456-172.367-172.366-172.367 172.366-57.456-57.456 172.366-172.367-172.367-172.367 57.456-57.456 172.367 172.366 172.366-172.366 57.456 57.456-172.366 172.366z" />
<glyph unicode="&#xe60d;" glyph-name="see" d="M256 380.29c-111.304 0-206.358-69.231-244.869-166.957 38.511-97.726 133.565-166.957 244.869-166.957 111.416 0 206.358 69.231 244.87 166.957-38.511 97.726-133.454 166.957-244.87 166.957zM256 102.029c-61.44 0-111.304 49.864-111.304 111.304s49.864 111.304 111.304 111.304 111.304-49.864 111.304-111.304-49.864-111.304-111.304-111.304zM256 280.116c-36.841 0-66.782-29.941-66.782-66.783s29.941-66.783 66.782-66.783 66.783 29.941 66.783 66.783-29.941 66.783-66.783 66.783z" />
<glyph unicode="&#xe60e;" glyph-name="unsee" d="M256 320c58.88 0 106.666-47.786 106.666-106.667 0-13.76-2.774-26.88-7.574-38.933l62.4-62.4c32.214 26.88 57.6 61.654 73.28 101.334-37.014 93.654-128 160-234.774 160-29.867 0-58.453-5.333-85.013-14.933l46.080-45.973c12.053 4.693 25.173 7.573 38.934 7.573zM42.666 378.133l58.347-58.346c-35.2-27.52-63.040-64.107-79.68-106.454 36.907-93.654 128-160 234.667-160 33.067 0 64.64 6.4 93.546 18.026l9.067-9.067 62.187-62.293 27.2 27.094-378.134 378.24-27.2-27.2zM160.64 260.267l32.96-32.96c-0.96-4.587-1.6-9.174-1.6-13.974 0-35.307 28.694-64 64-64 4.8 0 9.387 0.64 13.866 1.6l32.96-32.96c-14.187-7.040-29.974-11.306-46.827-11.306-58.88 0-106.666 47.786-106.666 106.666 0 16.854 4.267 32.64 11.306 46.934zM252.48 277.013l67.2-67.2 0.32 3.52c0 35.306-28.693 64-64 64l-3.52-0.32z" />
<glyph unicode="&#xe60f;" glyph-name="chart" d="M213.333 42.667h85.333v341.334h-85.334v-341.334zM85.334 42.667h85.334v170.667h-85.334v-170.667zM341.334 277.333v-234.667h85.334v234.667h-85.334z" />
<glyph unicode="&#xe610;" glyph-name="chat" d="M448 341.333h-42.666v-192h-277.334v-42.666c0-11.733 9.6-21.334 21.334-21.334h234.666l85.334-85.334v320c0 11.734-9.6 21.334-21.334 21.334zM362.666 213.333v192c0 11.733-9.6 21.333-21.334 21.333h-277.334c-11.733 0-21.334-9.6-21.334-21.333v-298.667l85.334 85.334h213.334c11.733 0 21.334 9.6 21.334 21.334z" />
<glyph unicode="&#xe611;" glyph-name="msg" d="M426.666 426.667h-341.334c-23.573 0-42.453-19.094-42.453-42.666l-0.214-384 85.334 85.334h298.666c23.574 0 42.666 19.094 42.666 42.666v256c0 23.573-19.094 42.666-42.666 42.666zM192 234.667h-42.666v42.667h42.666v-42.667zM277.334 234.667h-42.666v42.667h42.666v-42.667zM362.666 234.667h-42.666v42.667h42.666v-42.667z" />
<glyph unicode="&#xe612;" glyph-name="block" d="M256 445.621c-128.339 0-232.287-103.948-232.287-232.288s103.948-232.288 232.287-232.288 232.288 103.948 232.288 232.288-103.948 232.288-232.288 232.288zM70.17 213.333c0 102.671 83.159 185.83 185.83 185.83 42.973 0 82.346-14.75 113.821-39.141l-260.51-260.51c-24.391 31.475-39.141 70.848-39.141 113.821zM256 27.503c-42.973 0-82.346 14.75-113.821 39.141l260.51 260.511c24.39-31.475 39.14-70.848 39.14-113.821 0-102.671-83.159-185.83-185.83-185.83z" />
<glyph unicode="&#xe613;" glyph-name="turnr" horiz-adv-x="577" d="M224.219 451.866c123.833 0 224.219-100.386 224.219-224.219h112.11l-144.141-144.141-144.141 144.141h112.11c0 88.451-71.705 160.157-160.156 160.157s-160.156-71.705-160.156-160.157c0-88.453 71.704-160.157 160.156-160.157v-64.063c-123.833 0-224.219 100.386-224.219 224.219s100.386 224.219 224.219 224.219z" />
<glyph unicode="&#xe614;" glyph-name="tag" d="M456.747 222.293l-191.893 191.893c-7.786 7.68-18.453 12.48-30.186 12.48h-149.333c-23.573 0-42.666-19.094-42.666-42.666v-149.333c0-11.84 4.8-22.507 12.587-30.187l192-192c7.68-7.68 18.346-12.48 30.080-12.48s22.507 4.8 30.187 12.48l149.333 149.334c7.68 7.786 12.48 18.454 12.48 30.187 0 11.84-4.8 22.507-12.587 30.293zM117.334 320c-17.706 0-32 14.293-32 32s14.293 32 32 32 32-14.293 32-32-14.293-32-32-32z" />
<glyph unicode="&#xe615;" glyph-name="more" d="M116.628 259.79c-25.668 0-46.457-20.79-46.457-46.457s20.79-46.457 46.457-46.457 46.457 20.789 46.457 46.457-20.79 46.457-46.457 46.457zM395.372 259.79c-25.668 0-46.457-20.79-46.457-46.457s20.789-46.457 46.457-46.457 46.457 20.789 46.457 46.457-20.789 46.457-46.457 46.457zM256 259.79c-25.668 0-46.457-20.79-46.457-46.457s20.79-46.457 46.457-46.457 46.457 20.789 46.457 46.457-20.789 46.457-46.457 46.457z" />
<glyph unicode="&#xe616;" glyph-name="bell" d="M140.374 392.96l-30.507 30.507c-51.093-38.934-84.8-99.094-88-167.467h42.666c3.306 56.533 32.427 106.027 75.84 136.96zM426.134 256h42.666c-3.2 68.373-36.906 128.534-88 167.466l-30.4-30.4c43.306-31.040 72.426-80.534 75.733-137.066zM384 245.333c0 65.6-45.546 120.32-106.666 134.827v14.506c0 17.707-14.293 32-32 32s-32-14.293-32-32v-14.506c-61.12-14.507-106.666-69.226-106.666-134.827v-117.334l-42.666-42.666v-21.334h362.667v21.334l-42.666 42.666v117.334zM245.333-0c2.987 0 5.867 0.32 8.64 0.853 13.866 2.88 25.28 12.48 30.72 25.173 2.134 5.12 3.307 10.666 3.307 16.64h-85.334c0-23.574 19.094-42.666 42.666-42.666z" />
<glyph unicode="&#xe617;" glyph-name="cut" d="M201.18 314.611c5.226 11.614 8.363 24.506 8.363 38.095 0 51.336-41.579 92.915-92.915 92.915s-92.915-41.579-92.915-92.915 41.579-92.915 92.915-92.915c13.588 0 26.481 3.135 38.095 8.362l54.82-54.82-54.82-54.82c-11.614 5.226-24.506 8.363-38.095 8.363-51.335 0-92.915-41.579-92.915-92.915s41.58-92.915 92.915-92.915 92.915 41.579 92.915 92.915c0 13.589-3.136 26.481-8.363 38.095l54.82 54.82 162.601-162.601h69.686v23.229l-287.108 287.108zM116.628 306.248c-25.668 0-46.457 20.789-46.457 46.457s20.79 46.457 46.457 46.457 46.457-20.789 46.457-46.457-20.79-46.457-46.457-46.457zM116.628 27.503c-25.668 0-46.457 20.789-46.457 46.457s20.79 46.457 46.457 46.457 46.457-20.789 46.457-46.457-20.79-46.457-46.457-46.457zM256 201.719c-6.387 0-11.614 5.226-11.614 11.615s5.226 11.615 11.614 11.615 11.615-5.226 11.615-11.615-5.226-11.615-11.615-11.615zM418.601 422.392l-139.372-139.372 46.457-46.457 162.601 162.601v23.229z" />
<glyph unicode="&#xe62b;" glyph-name="info" d="M256.25 483.897c-141.523 0-256.25-114.727-256.25-256.25s114.727-256.25 256.25-256.25 256.25 114.727 256.25 256.25-114.727 256.25-256.25 256.25zM224.219 363.78c0 13.213 10.81 24.024 24.024 24.024h16.015c13.213 0 24.024-10.81 24.024-24.024v-16.015c0-13.213-10.81-24.024-24.024-24.024h-16.016c-13.213 0-24.023 10.811-24.023 24.024v16.016zM320.313 67.491h-128.125v32.031h32.031v128.125h-32.031v32.031h96.094v-160.156h32.031v-32.031z" />
<glyph unicode="&#xe62e;" glyph-name="done" d="M448.438 393.153l-272.266-272.266-112.109 112.11-48.047-48.047 160.156-160.156 320.313 320.313z" />
<glyph unicode="&#xe639;" glyph-name="buy" d="M489.269 418.603c-17.009 4.858-34.739-4.99-39.599-22l-2.514-8.8h-298.763l-4.5 36.004c-2.004 16.029-15.631 28.059-31.784 28.059h-80.078c-17.691 0-32.032-14.341-32.032-32.032s14.341-32.031 32.032-32.031h51.802l28.524-228.192c2.004-16.029 15.63-28.058 31.784-28.058h272.266c14.301 0 26.87 9.481 30.799 23.231l64.063 224.219c4.86 17.010-4.99 34.739-22 39.598zM256.25 259.678v32.032h64.060v-32.032h-64.060zM320.311 227.648v-32.032h-64.060v32.032h64.060zM256.25 323.741v32.032h64.060v-32.032h-64.060zM152.398 355.773h71.821v-32.032h-67.817l-4.004 32.032zM160.405 291.71h63.814v-32.032h-59.81l-4.004 32.032zM168.413 227.648h55.805v-32.032h-51.802l-4.004 32.032zM392.245 195.616h-39.903v32.032h49.055l-9.152-32.032zM410.549 259.678h-58.207v32.032h67.359l-9.152-32.032zM428.853 323.741h-76.51v32.032h85.662l-9.152-32.032zM128.125 51.475c0 26.536 21.512 48.047 48.047 48.047s48.047-21.512 48.047-48.047c0-26.536-21.512-48.047-48.047-48.047s-48.047 21.512-48.047 48.047zM320.313 51.475c0 26.536 21.512 48.047 48.047 48.047s48.047-21.512 48.047-48.047c0-26.536-21.512-48.047-48.047-48.047s-48.047 21.512-48.047 48.047z" />
<glyph unicode="&#xe63a;" glyph-name="add" d="M480.469 249.011h-192.188v192.188h-64.063v-192.188h-192.188v-64.063h192.188v-192.188h64.063v192.188h192.188z" />
<glyph unicode="&#xe63c;" glyph-name="minus" d="M32.032 249.011h448.438v-64.063h-448.438v64.063z" />
<glyph unicode="&#xe640;" glyph-name="question" d="M256.25 483.897c-141.523 0-256.25-114.727-256.25-256.25s114.727-256.25 256.25-256.25 256.25 114.727 256.25 256.25-114.727 256.25-256.25 256.25zM256.25 35.459c-17.69 0-32.031 14.341-32.031 32.031s14.341 32.031 32.031 32.031c17.69 0 32.031-14.341 32.031-32.031s-14.341-32.031-32.031-32.031zM322.995 218.106c-11.966-6.82-22.301-12.711-29.301-23.523-7.183-11.094-10.978-27.243-11.541-49.030-1.001-7.863-7.748-13.998-15.873-13.998h-20.056c-8.809 0-16.016 7.207-16.016 16.015h-0.051c0.959 31.447 7.492 56.22 19.846 75.301 13.897 21.464 32.375 31.995 47.222 40.458 20.576 11.728 29.094 16.581 29.094 44.397 0 13.529-6.67 26.538-18.781 36.631-13.481 11.235-31.696 17.422-51.287 17.422s-37.806-6.187-51.287-17.422c-12.112-10.093-18.781-23.101-18.781-36.631 0-8.808-7.207-16.015-16.016-16.015h-20.019c-8.809 0-16.016 7.207-16.016 16.015 0 29.25 13.321 56.46 37.51 76.617 22.817 19.016 52.865 29.487 84.609 29.487s61.791-10.471 84.609-29.487c24.188-20.156 37.51-47.366 37.51-76.617 0-58.059-32.005-76.3-55.374-89.62z" />
<glyph unicode="&#xe900;" glyph-name="water" d="M376.64 300.16l-120.64 120.746-120.64-120.746c-66.666-66.667-66.666-174.72 0-241.387 33.28-33.28 77.013-50.026 120.64-50.026s87.36 16.64 120.64 50.026c66.666 66.666 66.666 174.72 0 241.387zM256 51.52c-34.24 0-66.346 13.334-90.454 37.546-24.214 24.106-37.547 56.214-37.547 90.454s13.333 66.347 37.547 90.56l90.454 90.454v-309.014z" />
<glyph unicode="&#xe902;" glyph-name="mic" d="M256 170.667c35.307 0 63.786 28.694 63.786 64l0.214 128c0 35.413-28.587 64-64 64-35.306 0-64-28.587-64-64v-128c0-35.306 28.694-64 64-64zM369.067 234.667c0-64-54.080-108.8-113.067-108.8-58.88 0-113.067 44.8-113.067 108.8h-36.267c0-72.854 58.026-133.013 128-143.36v-69.974h42.666v69.974c69.974 10.346 128 70.507 128 143.36h-36.267z" />
<glyph unicode="&#xe903;" glyph-name="left" d="M328.853 311.147l-30.187 30.187-128-128 128-128 30.187 30.187-97.814 97.814z" />
<glyph unicode="&#xe904;" glyph-name="right" d="M213.333 341.333l-30.186-30.187 97.814-97.814-97.814-97.813 30.186-30.187 128 128z" />
<glyph unicode="&#xe905;" glyph-name="close" d="M405.334 332.48l-30.187 30.187-119.147-119.147-119.147 119.147-30.186-30.187 119.147-119.147-119.147-119.147 30.186-30.187 119.147 119.147 119.147-119.147 30.187 30.187-119.147 119.147z" />
<glyph unicode="&#xe906;" glyph-name="menus" d="M64 85.333h384v42.666h-384v-42.666zM64 192h384v42.667h-384v-42.667zM64 341.333v-42.667h384v42.667h-384z" />
<glyph unicode="&#xe909;" glyph-name="download" d="M480 256c-17.688 0-32-14.328-32-32v-192h-384v192c0 17.672-14.312 32-32 32s-32-14.328-32-32v-224c0-17.672 14.312-32 32-32h448c17.688 0 32 14.328 32 32v224c0 17.672-14.312 32-32 32zM288 256v195.909c0 15.513-14.312 28.091-32 28.091s-32-12.578-32-28.091v-195.909h-96l128-128 128 128h-96z" />
<glyph unicode="&#xe90a;" glyph-name="upload" d="M480 256c-17.688 0-32-14.328-32-32v-192h-384v192c0 17.672-14.312 32-32 32s-32-14.328-32-32v-224c0-17.672 14.312-32 32-32h448c17.688 0 32 14.328 32 32v224c0 17.672-14.312 32-32 32zM224 160c0-17.672 14.312-32 32-32s32 14.328 32 32v192h96l-128 128-128-128h96v-192z" />
<glyph unicode="&#xe90b;" glyph-name="grid" d="M32 252h196v196h-196v-196zM284 448v-196h196v196h-196zM284 0h196v196h-196v-196zM32 0h196v196h-196v-196z" />
<glyph unicode="&#xe90c;" glyph-name="list" horiz-adv-x="384" d="M0 192h64v64h-64v-64zM0 320h64v64h-64v-64zM0 64h64v64h-64v-64zM128 192h256v64h-256v-64zM128 320h256v64h-256v-64zM128 64h256v64h-256v-64z" />
<glyph unicode="&#xe950;" glyph-name="alert" d="M256 422.4c-123.712 0-224-100.288-224-224s100.288-224 224-224 224 100.288 224 224-100.288 224-224 224zM256 18.4c-99.412 0-180 80.589-180 180 0 99.412 80.588 180 180 180 99.411 0 180-80.588 180-180 0-99.411-80.589-180-180-180zM467.392 342.813c8.021 14.026 12.608 30.271 12.608 47.587 0 53.020-42.98 96-96 96-30.909 0-58.401-14.611-75.96-37.298 65.942-13.618 122.603-52.599 159.352-106.289v0zM203.96 449.102c-17.558 22.687-45.051 37.298-75.96 37.298-53.020 0-96-42.98-96-96 0-17.316 4.587-33.561 12.608-47.587 36.75 53.69 93.411 92.671 159.352 106.289zM256 198.4v128h-32v-160h128v32z" />
<glyph unicode="&#xe954;" glyph-name="print" d="M128 454.4h256v-64h-256v64zM480 358.4h-448c-17.6 0-32-14.4-32-32v-160c0-17.6 14.397-32 32-32h96v-128h256v128h96c17.6 0 32 14.4 32 32v160c0 17.6-14.4 32-32 32zM64 262.4c-17.673 0-32 14.327-32 32s14.327 32 32 32 32-14.327 32-32-14.326-32-32-32zM352 38.4h-192v160h192v-160z" />
<glyph unicode="&#xe967;" glyph-name="undo" d="M380.931-25.6c56.863 103.016 66.444 260.153-156.931 254.912v-126.912l-192 192 192 192v-124.186c267.481 6.971 297.285-236.107 156.931-387.814z" />
<glyph unicode="&#xe990;" glyph-name="unlock" d="M384 454.4c52.935 0 96-43.065 96-96v-96h-64v96c0 17.645-14.355 32-32 32h-64c-17.645 0-32-14.355-32-32v-96h8c13.2 0 24-10.8 24-24v-240c0-13.2-10.8-24-24-24h-272c-13.2 0-24 10.8-24 24v240c0 13.2 10.8 24 24 24h200v96c0 52.935 43.065 96 96 96h64z" />
<glyph unicode="&#xe991;" glyph-name="tool" d="M501.467 77.462l-230.276 197.38c10.724 20.149 16.809 43.141 16.809 67.558 0 79.529-64.471 144-144 144-14.547 0-28.586-2.166-41.823-6.177l83.195-83.195c12.445-12.445 12.445-32.81 0-45.255l-50.745-50.745c-12.445-12.445-32.81-12.445-45.255 0l-83.195 83.195c-4.011-13.237-6.177-27.276-6.177-41.823 0-79.529 64.471-144 144-144 24.417 0 47.409 6.085 67.558 16.81l197.38-230.276c11.454-13.362 31.008-14.113 43.452-1.669l50.746 50.746c12.444 12.444 11.693 31.997-1.669 43.451z" />
<glyph unicode="&#xe9b6;" glyph-name="shutdown" d="M320 413.106v-67.979c18.103-7.902 34.75-19.204 49.137-33.59 30.221-30.22 46.863-70.4 46.863-113.137s-16.643-82.917-46.863-113.137c-30.22-30.22-70.399-46.863-113.137-46.863s-82.917 16.643-113.137 46.863c-30.22 30.22-46.863 70.4-46.863 113.137s16.643 82.917 46.863 113.137c14.387 14.387 31.034 25.689 49.137 33.591v67.978c-92.524-27.54-160-113.236-160-214.706 0-123.712 100.289-224 224-224s224 100.288 224 224c0 101.47-67.475 187.166-160 214.706zM224 486.4h64v-256h-64z" />
<glyph unicode="&#xe9bc;" glyph-name="org" d="M488 102.4h-8v104c0 30.878-25.121 56-56 56h-136v64h8c13.2 0 24 10.8 24 24v80c0 13.2-10.8 24-24 24h-80c-13.2 0-24-10.8-24-24v-80c0-13.2 10.8-24 24-24h8v-64h-136c-30.878 0-56-25.122-56-56v-104h-8c-13.2 0-24-10.8-24-24v-80c0-13.2 10.8-24 24-24h80c13.2 0 24 10.8 24 24v80c0 13.2-10.8 24-24 24h-8v96h128v-96h-8c-13.2 0-24-10.8-24-24v-80c0-13.2 10.8-24 24-24h80c13.2 0 24 10.8 24 24v80c0 13.2-10.8 24-24 24h-8v96h128v-96h-8c-13.2 0-24-10.8-24-24v-80c0-13.2 10.8-24 24-24h80c13.2 0 24 10.8 24 24v80c0 13.2-10.8 24-24 24zM96 6.4h-64v64h64v-64zM288 6.4h-64v64h64v-64zM224 358.4v64h64v-64h-64zM480 6.4h-64v64h64v-64z" />
<glyph unicode="&#xe9cd;" glyph-name="attachment" d="M332.916 322.876l-32.476 32.461-162.405-162.371c-26.907-26.896-26.907-70.524 0-97.422 26.902-26.896 70.53-26.896 97.437 0l194.886 194.854c44.857 44.831 44.857 117.531 0 162.363-44.833 44.852-117.556 44.852-162.391 0l-204.615-204.589c-0.145-0.152-0.306-0.288-0.438-0.423-62.551-62.548-62.551-163.928 0-226.453 62.527-62.528 163.934-62.528 226.494 0 0.137 0.137 0.258 0.284 0.41 0.438l0.016-0.017 139.666 139.646-32.493 32.46-139.665-139.631c-0.148-0.134-0.282-0.285-0.423-0.422-44.537-44.529-116.99-44.529-161.538 0-44.531 44.521-44.531 116.961 0 161.489 0.152 0.152 0.302 0.291 0.444 0.423l-0.023 0.030 204.64 204.583c26.856 26.869 70.572 26.869 97.443 0 26.856-26.867 26.856-70.574 0-97.42l-194.886-194.85c-8.968-8.961-23.527-8.961-32.486 0-8.947 8.943-8.947 23.516 0 32.46l162.403 162.391z" />
<glyph unicode="&#xea2e;" glyph-name="loop" d="M444.84 403.24c-46.804 51.108-114.077 83.16-188.84 83.16-141.385 0-256-114.615-256-256h48c0 114.875 93.125 208 208 208 61.51 0 116.771-26.709 154.848-69.153l-74.848-74.847h176v176l-67.16-67.16zM464 230.4c0-114.875-93.125-208-208-208-61.51 0-116.771 26.709-154.847 69.153l74.847 74.847h-176v-176l67.16 67.16c46.804-51.108 114.077-83.16 188.84-83.16 141.385 0 256 114.615 256 256h-48z" />
<glyph unicode="&#xf014;" glyph-name="bin" horiz-adv-x="403" d="M0 349.257v18.286q0 4 2.571 6.572t6.572 2.571h88.285l20 47.714q4.285 10.572 15.428 18t22.571 7.429h91.428q11.428 0 22.572-7.429t15.428-18l20-47.714h88.286q4 0 6.572-2.571t2.572-6.572v-18.286q0-4-2.572-6.571t-6.572-2.572h-27.428v-270.857q0-23.714-13.428-41t-32.286-17.286h-237.714q-18.857 0-32.285 16.714t-13.428 40.428v272h-27.428q-4 0-6.572 2.572t-2.571 6.572zM73.143 69.257q0-6.286 2-11.572t4.143-7.714 3-2.428h237.714q0.857 0 3 2.428t4.143 7.714 2 11.572v270.857h-256v-270.857zM109.715 111.543v164.572q0 4 2.572 6.571t6.572 2.572h18.285q4 0 6.571-2.572t2.571-6.572v-164.572q0-4-2.571-6.572t-6.572-2.572h-18.285q-4 0-6.572 2.572t-2.572 6.572zM137.143 376.685h128l-13.714 33.429q-2 2.571-4.857 3.143h-90.571q-2.857-0.572-4.857-3.143zM182.857 111.543v164.572q0 4 2.571 6.571t6.572 2.572h18.286q4 0 6.572-2.572t2.571-6.572v-164.572q0-4-2.571-6.572t-6.572-2.572h-18.286q-4 0-6.572 2.572t-2.571 6.572zM256 111.543v164.572q0 4 2.572 6.571t6.572 2.572h18.286q4 0 6.572-2.572t2.572-6.572v-164.572q0-4-2.572-6.572t-6.572-2.572h-18.286q-4 0-6.572 2.572t-2.572 6.572z" />
<glyph unicode="&#xf05c;" glyph-name="link" d="M384 358.4h-69c24-16 46.5-44.5 53.5-64h15c32.5 0 64-32 64-64s-32.5-64-64-64h-96c-31.5 0-64 32-64 64 0 11.5 3.5 22.5 9 32h-68.5c-2.5-10.5-4-21-4-32 0-64 63.5-128 127.5-128s32.5 0 96.5 0 128 64 128 128-64 128-128 128zM143.5 166.4h-15c-32.5 0-64 32-64 64s32.5 64 64 64h96c31.5 0 64-32 64-64 0-11.5-3.5-22.5-9-32h68.5c2.5 10.5 4 21 4 32 0 64-63.5 128-127.5 128s-32.5 0-96.5 0-128-64-128-128 64-128 128-128h69c-24 16-46.5 44.5-53.5 64z" />
<glyph unicode="&#xf06a;" glyph-name="lock" horiz-adv-x="384" d="M352 262.4c-16 0-32 0-32 0s0 32 0 96-64 128-128 128-128-64-128-128 0-96 0-96-16 0-32 0-32-16-32-32 0-208 0-224 16-32 32-32 304 0 320 0 32 16 32 32 0 208 0 224-16 32-32 32zM256 198.4h-192v-32h192v-32h-192v-32h192v-32h-192v-32h192v-32h-224v224h224v-32zM256 262.4h-128s0 64 0 96 32 64 64 64 64-32 64-64 0-96 0-96z" />
<glyph unicode="&#xf0c7;" glyph-name="save" d="M109.715 36.572h219.429v109.714h-219.429v-109.714zM365.714 36.572h36.572v256q0 4-2.857 11t-5.714 9.857l-80.286 80.286q-2.857 2.857-9.714 5.714t-11.143 2.857v-118.857q0-11.428-8-19.428t-19.428-8h-164.571q-11.428 0-19.428 8t-8 19.428v118.857h-36.572v-365.714h36.572v118.857q0 11.428 8 19.428t19.428 8h237.715q11.428 0 19.428-8t8-19.428v-118.857zM256 301.714v91.428q0 3.714-2.714 6.428t-6.428 2.714h-54.857q-3.714 0-6.429-2.714t-2.714-6.428v-91.428q0-3.714 2.714-6.428t6.428-2.714h54.857q3.714 0 6.429 2.714t2.714 6.428zM438.857 292.572v-265.143q0-11.428-8-19.428t-19.428-8h-384q-11.428 0-19.428 8t-8 19.428v384q0 11.428 8 19.428t19.428 8h265.143q11.428 0 25.143-5.714t21.714-13.714l80-80q8-8 13.714-21.714t5.714-25.143z" />
<glyph unicode="&#xf0d7;" glyph-name="arb" horiz-adv-x="293" d="M14.259 279.909q0 6.704 4.899 11.603t11.604 4.899h231.040q6.704 0 11.603-4.899t4.899-11.603-4.899-11.603l-115.52-115.52q-4.899-4.899-11.603-4.899t-11.603 4.899l-115.52 115.52q-4.899 4.899-4.899 11.604z" />
<glyph unicode="&#xf0d8;" glyph-name="art" horiz-adv-x="293" d="M14.259 147.886q0 6.704 4.899 11.603l115.52 115.52q4.899 4.899 11.603 4.899t11.603-4.899l115.52-115.52q4.899-4.899 4.899-11.603t-4.899-11.603-11.603-4.899h-231.040q-6.704 0-11.604 4.899t-4.899 11.603z" />
<glyph unicode="&#xf1c2;" glyph-name="doc" d="M419.428 366.857q8-8 13.714-21.714t5.714-25.143v-329.143q0-11.428-8-19.428t-19.428-8h-384q-11.428 0-19.428 8t-8 19.428v457.143q0 11.428 8 19.428t19.428 8h256q11.428 0 25.143-5.714t21.714-13.714zM292.572 436.572v-107.428h107.428q-2.857 8.286-6.286 11.714l-89.428 89.428q-3.428 3.428-11.714 6.286zM402.286 0v292.572h-118.857q-11.428 0-19.428 8t-8 19.428v118.857h-219.429v-438.857h365.714zM66.572 256v-30.571h20l46.857-188.857h45.428l36.572 138.572q2 5.714 2.857 13.143 0.571 4.572 0.571 6.857h1.143l0.857-6.857q0.286-0.857 1-5.714t1.571-7.428l36.571-138.571h45.428l46.857 188.857h20v30.572h-85.714v-30.572h25.714l-28.286-125.143q-1.428-5.714-2-13.143l-0.572-6h-1.143l-0.857 6q-0.286 1.428-1.143 6t-1.428 7.143l-41.143 155.714h-32.571l-41.143-155.714q-0.571-2.572-1.286-7t-1-6.143l-1.143-6h-1.143l-0.571 6q-0.571 7.428-2 13.143l-28.285 125.143h25.715v30.572h-85.715z" />
<glyph unicode="&#xf1c3;" glyph-name="xls" d="M419.428 366.857q8-8 13.714-21.714t5.714-25.143v-329.143q0-11.428-8-19.428t-19.428-8h-384q-11.428 0-19.428 8t-8 19.428v457.143q0 11.428 8 19.428t19.428 8h256q11.428 0 25.143-5.714t21.714-13.714zM292.572 436.572v-107.428h107.428q-2.857 8.286-6.286 11.714l-89.428 89.428q-3.428 3.428-11.714 6.286zM402.286 0v292.572h-118.857q-11.428 0-19.428 8t-8 19.428v118.857h-219.429v-438.857h365.714zM122.572 66.857v-30.286h80.285v30.286h-21.429l29.428 46q1.429 2 2.857 4.714t2.143 3.857 1 1.143h0.571q0.286-1.143 1.429-2.857 0.571-1.143 1.286-2.143t1.714-2.286 1.857-2.428l30.571-46h-21.714v-30.286h83.143v30.286h-19.428l-54.857 78 55.715 80.572h19.143v30.572h-79.714v-30.572h21.143l-29.428-45.428q-1.143-2-2.857-4.714t-2.571-3.857l-0.571-0.857h-0.571q-0.286 1.143-1.429 2.857-1.714 3.143-4.857 6.572l-30.286 45.428h21.714v30.572h-82.857v-30.572h19.429l54-77.714-55.428-80.857h-19.428z" />
<glyph unicode="&#xf1c4;" glyph-name="ppt" d="M419.428 366.857q8-8 13.714-21.714t5.714-25.143v-329.143q0-11.428-8-19.428t-19.428-8h-384q-11.428 0-19.428 8t-8 19.428v457.143q0 11.428 8 19.428t19.428 8h256q11.428 0 25.143-5.714t21.714-13.714zM292.572 436.572v-107.428h107.428q-2.857 8.286-6.286 11.714l-89.428 89.428q-3.428 3.428-11.714 6.286zM402.286 0v292.572h-118.857q-11.428 0-19.428 8t-8 19.428v118.857h-219.429v-438.857h365.714zM118.857 66.857v-30.286h93.429v30.286h-26.572v47.714h39.143q21.715 0 33.715 4.286 19.143 6.572 30.428 24.857t11.286 41.714q0 23.143-10.572 40.286t-28.572 24.857q-13.714 5.429-37.143 5.429h-105.143v-30.572h26.286v-158.571h-26.285zM219.714 146.857h-34v76.572h34.286q14.857 0 23.714-5.143 16-9.428 16-32.857 0-25.428-17.714-34.286-8.857-4.286-22.286-4.286z" />
<glyph unicode="&#xf1d9;" glyph-name="fly" d="M504 472.286q9.428-6.857 7.714-18.285l-73.143-438.857q-1.428-8.286-9.143-12.857-4-2.286-8.857-2.286-3.143 0-6.857 1.428l-150.571 61.428-85.143-93.428q-5.143-6-13.429-6-4 0-6.572 1.143-5.428 2-8.572 6.714t-3.143 10.428v129.143l-134.857 55.143q-10.572 4-11.428 15.714-0.857 11.143 9.143 16.857l475.428 274.286q10 6 19.428-0.572zM406.286 44l63.143 378-409.714-236.286 96-39.143 246.571 182.571-136.572-227.714z" />
</font>
</defs>
</svg>
